<mxfile host="Electron" modified="2023-10-31T14:41:16.263Z" agent="Mozilla/5.0 (Windows NT 10.0; Win64; x64) AppleWebKit/537.36 (KHTML, like Gecko) draw.io/22.0.3 Chrome/114.0.5735.289 Electron/25.8.4 Safari/537.36" etag="owK7Vx12c-CVFkFMUUYa" version="22.0.3" type="device">
  <diagram name="Page-1" id="97916047-d0de-89f5-080d-49f4d83e522f">
    <mxGraphModel dx="2276" dy="970" grid="1" gridSize="10" guides="1" tooltips="1" connect="1" arrows="1" fold="1" page="1" pageScale="1.5" pageWidth="1169" pageHeight="827" background="none" math="0" shadow="0">
      <root>
        <mxCell id="0" />
        <mxCell id="1" parent="0" />
        <mxCell id="2" value="User" style="rounded=1;fillColor=#10739E;strokeColor=none;shadow=1;gradientColor=none;fontStyle=1;fontColor=#FFFFFF;fontSize=14;" parent="1" vertex="1">
          <mxGeometry x="672" y="205.5" width="200" height="60" as="geometry" />
        </mxCell>
        <mxCell id="3" value="Login" style="rounded=1;fillColor=#10739E;strokeColor=none;shadow=1;gradientColor=none;fontStyle=1;fontColor=#FFFFFF;fontSize=14;" parent="1" vertex="1">
          <mxGeometry x="662" y="345.5" width="220" height="60" as="geometry" />
        </mxCell>
        <mxCell id="4" value="Sai báo lỗi" style="rounded=1;fillColor=#10739E;strokeColor=none;shadow=1;gradientColor=none;fontStyle=1;fontColor=#FFFFFF;fontSize=14;" parent="1" vertex="1">
          <mxGeometry x="472" y="455.5" width="200" height="60" as="geometry" />
        </mxCell>
        <mxCell id="5" value="Xác nhận người dùng" style="rounded=1;fillColor=#10739E;strokeColor=none;shadow=1;gradientColor=none;fontStyle=1;fontColor=#FFFFFF;fontSize=14;" parent="1" vertex="1">
          <mxGeometry x="860" y="457.75" width="200" height="60" as="geometry" />
        </mxCell>
        <mxCell id="7" value="Xem thông tin(dịch vụ, sản phẩm...)" style="rounded=1;fillColor=#10739E;strokeColor=none;shadow=1;gradientColor=none;fontStyle=1;fontColor=#FFFFFF;fontSize=14;" parent="1" vertex="1">
          <mxGeometry x="1092" y="455.5" width="298" height="64.5" as="geometry" />
        </mxCell>
        <mxCell id="29" value="" style="edgeStyle=elbowEdgeStyle;elbow=vertical;strokeWidth=4;endArrow=block;endFill=1;fontStyle=1;strokeColor=#23445D;" parent="1" source="2" target="3" edge="1">
          <mxGeometry x="22" y="165.5" width="100" height="100" as="geometry">
            <mxPoint x="22" y="265.5" as="sourcePoint" />
            <mxPoint x="122" y="165.5" as="targetPoint" />
          </mxGeometry>
        </mxCell>
        <mxCell id="30" value="" style="edgeStyle=elbowEdgeStyle;elbow=vertical;strokeWidth=4;endArrow=block;endFill=1;fontStyle=1;strokeColor=#23445D;" parent="1" source="3" target="5" edge="1">
          <mxGeometry x="22" y="165.5" width="100" height="100" as="geometry">
            <mxPoint x="22" y="265.5" as="sourcePoint" />
            <mxPoint x="122" y="165.5" as="targetPoint" />
          </mxGeometry>
        </mxCell>
        <mxCell id="31" value="" style="edgeStyle=elbowEdgeStyle;elbow=vertical;strokeWidth=4;endArrow=block;endFill=1;fontStyle=1;strokeColor=#23445D;" parent="1" source="3" target="4" edge="1">
          <mxGeometry x="22" y="165.5" width="100" height="100" as="geometry">
            <mxPoint x="22" y="265.5" as="sourcePoint" />
            <mxPoint x="122" y="165.5" as="targetPoint" />
          </mxGeometry>
        </mxCell>
        <mxCell id="33" value="" style="edgeStyle=elbowEdgeStyle;elbow=vertical;strokeWidth=4;endArrow=block;endFill=1;fontStyle=1;dashed=1;strokeColor=#23445D;" parent="1" source="2" target="7" edge="1">
          <mxGeometry x="22" y="165.5" width="100" height="100" as="geometry">
            <mxPoint x="22" y="265.5" as="sourcePoint" />
            <mxPoint x="122" y="165.5" as="targetPoint" />
            <Array as="points">
              <mxPoint x="1010" y="310" />
            </Array>
          </mxGeometry>
        </mxCell>
        <mxCell id="stTekoHwhPH9pPkIOouY-57" value="Đăng ký" style="rounded=1;fillColor=#10739E;strokeColor=none;shadow=1;gradientColor=none;fontStyle=1;fontColor=#FFFFFF;fontSize=14;" parent="1" vertex="1">
          <mxGeometry x="1400" y="457.75" width="120" height="64.5" as="geometry" />
        </mxCell>
        <mxCell id="stTekoHwhPH9pPkIOouY-58" value="" style="edgeStyle=elbowEdgeStyle;elbow=vertical;strokeWidth=4;endArrow=block;endFill=1;fontStyle=1;dashed=1;strokeColor=#23445D;exitX=0.5;exitY=1;exitDx=0;exitDy=0;entryX=0.5;entryY=0;entryDx=0;entryDy=0;" parent="1" source="2" target="stTekoHwhPH9pPkIOouY-57" edge="1">
          <mxGeometry x="22" y="165.5" width="100" height="100" as="geometry">
            <mxPoint x="782" y="276" as="sourcePoint" />
            <mxPoint x="1251" y="466" as="targetPoint" />
            <Array as="points">
              <mxPoint x="1072" y="305.5" />
            </Array>
          </mxGeometry>
        </mxCell>
        <mxCell id="stTekoHwhPH9pPkIOouY-59" value="Khách hàng" style="rounded=1;fillColor=#10739E;strokeColor=none;shadow=1;gradientColor=none;fontStyle=1;fontColor=#FFFFFF;fontSize=14;" parent="1" vertex="1">
          <mxGeometry x="472" y="580" width="200" height="60" as="geometry" />
        </mxCell>
        <mxCell id="stTekoHwhPH9pPkIOouY-60" value="Admin" style="rounded=1;fillColor=#10739E;strokeColor=none;shadow=1;gradientColor=none;fontStyle=1;fontColor=#FFFFFF;fontSize=14;" parent="1" vertex="1">
          <mxGeometry x="1150" y="580" width="200" height="60" as="geometry" />
        </mxCell>
        <mxCell id="stTekoHwhPH9pPkIOouY-61" value="Nhân viên" style="rounded=1;fillColor=#10739E;strokeColor=none;shadow=1;gradientColor=none;fontStyle=1;fontColor=#FFFFFF;fontSize=14;" parent="1" vertex="1">
          <mxGeometry x="810" y="580" width="200" height="60" as="geometry" />
        </mxCell>
        <mxCell id="stTekoHwhPH9pPkIOouY-62" value="" style="edgeStyle=elbowEdgeStyle;elbow=vertical;strokeWidth=4;endArrow=block;endFill=1;fontStyle=1;strokeColor=#23445D;exitX=0.5;exitY=1;exitDx=0;exitDy=0;entryX=0.5;entryY=0;entryDx=0;entryDy=0;" parent="1" source="5" target="stTekoHwhPH9pPkIOouY-59" edge="1">
          <mxGeometry x="22" y="165.5" width="100" height="100" as="geometry">
            <mxPoint x="782" y="416" as="sourcePoint" />
            <mxPoint x="582" y="466" as="targetPoint" />
          </mxGeometry>
        </mxCell>
        <mxCell id="stTekoHwhPH9pPkIOouY-63" value="" style="edgeStyle=elbowEdgeStyle;elbow=vertical;strokeWidth=4;endArrow=block;endFill=1;fontStyle=1;strokeColor=#23445D;exitX=0.5;exitY=1;exitDx=0;exitDy=0;entryX=0.5;entryY=0;entryDx=0;entryDy=0;" parent="1" source="5" target="stTekoHwhPH9pPkIOouY-61" edge="1">
          <mxGeometry x="22" y="165.5" width="100" height="100" as="geometry">
            <mxPoint x="960" y="520" as="sourcePoint" />
            <mxPoint x="592" y="476" as="targetPoint" />
          </mxGeometry>
        </mxCell>
        <mxCell id="stTekoHwhPH9pPkIOouY-64" value="" style="edgeStyle=elbowEdgeStyle;elbow=vertical;strokeWidth=4;endArrow=block;endFill=1;fontStyle=1;strokeColor=#23445D;exitX=0.5;exitY=1;exitDx=0;exitDy=0;entryX=0.5;entryY=0;entryDx=0;entryDy=0;" parent="1" source="5" target="stTekoHwhPH9pPkIOouY-60" edge="1">
          <mxGeometry x="22" y="165.5" width="100" height="100" as="geometry">
            <mxPoint x="802" y="436" as="sourcePoint" />
            <mxPoint x="602" y="486" as="targetPoint" />
          </mxGeometry>
        </mxCell>
        <mxCell id="stTekoHwhPH9pPkIOouY-65" value="Xem thông tin về dịch vụ" style="rounded=1;fillColor=#10739E;strokeColor=none;shadow=1;gradientColor=none;fontStyle=1;fontColor=#FFFFFF;fontSize=14;" parent="1" vertex="1">
          <mxGeometry x="190" y="660" width="200" height="60" as="geometry" />
        </mxCell>
        <mxCell id="stTekoHwhPH9pPkIOouY-66" value="Xem thông tin về sản phẩm" style="rounded=1;fillColor=#10739E;strokeColor=none;shadow=1;gradientColor=none;fontStyle=1;fontColor=#FFFFFF;fontSize=14;" parent="1" vertex="1">
          <mxGeometry x="190" y="730" width="200" height="60" as="geometry" />
        </mxCell>
        <mxCell id="stTekoHwhPH9pPkIOouY-67" value="Xem thông tin về thẩm mỹ viện" style="rounded=1;fillColor=#10739E;strokeColor=none;shadow=1;gradientColor=none;fontStyle=1;fontColor=#FFFFFF;fontSize=14;" parent="1" vertex="1">
          <mxGeometry x="160" y="800" width="230" height="60" as="geometry" />
        </mxCell>
        <mxCell id="stTekoHwhPH9pPkIOouY-68" value="Xem thông tin về bài đăng" style="rounded=1;fillColor=#10739E;strokeColor=none;shadow=1;gradientColor=none;fontStyle=1;fontColor=#FFFFFF;fontSize=14;" parent="1" vertex="1">
          <mxGeometry x="190" y="870" width="200" height="60" as="geometry" />
        </mxCell>
        <mxCell id="stTekoHwhPH9pPkIOouY-69" value="Đặt lịch" style="rounded=1;fillColor=#10739E;strokeColor=none;shadow=1;gradientColor=none;fontStyle=1;fontColor=#FFFFFF;fontSize=14;" parent="1" vertex="1">
          <mxGeometry x="190" y="940" width="200" height="60" as="geometry" />
        </mxCell>
        <mxCell id="stTekoHwhPH9pPkIOouY-70" value="Xin tư vấn" style="rounded=1;fillColor=#10739E;strokeColor=none;shadow=1;gradientColor=none;fontStyle=1;fontColor=#FFFFFF;fontSize=14;" parent="1" vertex="1">
          <mxGeometry x="190" y="1010" width="200" height="60" as="geometry" />
        </mxCell>
        <mxCell id="stTekoHwhPH9pPkIOouY-72" value="Thêm sản phẩm vào giỏ hàng" style="rounded=1;fillColor=#10739E;strokeColor=none;shadow=1;gradientColor=none;fontStyle=1;fontColor=#FFFFFF;fontSize=14;" parent="1" vertex="1">
          <mxGeometry x="500" y="660" width="210" height="60" as="geometry" />
        </mxCell>
        <mxCell id="stTekoHwhPH9pPkIOouY-73" value="Cập nhật thông giỏ hàng" style="rounded=1;fillColor=#10739E;strokeColor=none;shadow=1;gradientColor=none;fontStyle=1;fontColor=#FFFFFF;fontSize=14;" parent="1" vertex="1">
          <mxGeometry x="510" y="730" width="200" height="60" as="geometry" />
        </mxCell>
        <mxCell id="stTekoHwhPH9pPkIOouY-74" value="Đặt hàng online" style="rounded=1;fillColor=#10739E;strokeColor=none;shadow=1;gradientColor=none;fontStyle=1;fontColor=#FFFFFF;fontSize=14;" parent="1" vertex="1">
          <mxGeometry x="510" y="800" width="200" height="60" as="geometry" />
        </mxCell>
        <mxCell id="stTekoHwhPH9pPkIOouY-75" value="Thanh toán trước" style="rounded=1;fillColor=#10739E;strokeColor=none;shadow=1;gradientColor=none;fontStyle=1;fontColor=#FFFFFF;fontSize=14;" parent="1" vertex="1">
          <mxGeometry x="510" y="870" width="200" height="60" as="geometry" />
        </mxCell>
        <mxCell id="stTekoHwhPH9pPkIOouY-76" value="Kiểm tra lịch hẹn" style="rounded=1;fillColor=#10739E;strokeColor=none;shadow=1;gradientColor=none;fontStyle=1;fontColor=#FFFFFF;fontSize=14;" parent="1" vertex="1">
          <mxGeometry x="510" y="940" width="200" height="60" as="geometry" />
        </mxCell>
        <mxCell id="stTekoHwhPH9pPkIOouY-77" value="Liên hệ FB/ZALO" style="rounded=1;fillColor=#10739E;strokeColor=none;shadow=1;gradientColor=none;fontStyle=1;fontColor=#FFFFFF;fontSize=14;" parent="1" vertex="1">
          <mxGeometry x="510" y="1010" width="200" height="60" as="geometry" />
        </mxCell>
        <mxCell id="eqcaT4zVRdiyQCACfoTZ-33" value="" style="edgeStyle=elbowEdgeStyle;elbow=vertical;strokeWidth=4;endArrow=block;endFill=1;fontStyle=1;strokeColor=#23445D;entryX=1;entryY=0.5;entryDx=0;entryDy=0;exitX=0;exitY=0.5;exitDx=0;exitDy=0;" edge="1" parent="1" source="stTekoHwhPH9pPkIOouY-59" target="stTekoHwhPH9pPkIOouY-65">
          <mxGeometry x="22" y="165.5" width="100" height="100" as="geometry">
            <mxPoint x="480" y="620" as="sourcePoint" />
            <mxPoint x="582" y="466" as="targetPoint" />
            <Array as="points">
              <mxPoint x="450" y="690" />
              <mxPoint x="480" y="650" />
            </Array>
          </mxGeometry>
        </mxCell>
        <mxCell id="eqcaT4zVRdiyQCACfoTZ-34" value="" style="edgeStyle=elbowEdgeStyle;elbow=vertical;strokeWidth=4;endArrow=block;endFill=1;fontStyle=1;strokeColor=#23445D;entryX=1;entryY=0.5;entryDx=0;entryDy=0;exitX=0;exitY=0.5;exitDx=0;exitDy=0;" edge="1" parent="1" source="stTekoHwhPH9pPkIOouY-59" target="stTekoHwhPH9pPkIOouY-66">
          <mxGeometry x="22" y="165.5" width="100" height="100" as="geometry">
            <mxPoint x="482" y="620" as="sourcePoint" />
            <mxPoint x="400" y="700" as="targetPoint" />
            <Array as="points">
              <mxPoint x="430" y="760" />
            </Array>
          </mxGeometry>
        </mxCell>
        <mxCell id="eqcaT4zVRdiyQCACfoTZ-35" value="" style="edgeStyle=elbowEdgeStyle;elbow=vertical;strokeWidth=4;endArrow=block;endFill=1;fontStyle=1;strokeColor=#23445D;entryX=1;entryY=0.5;entryDx=0;entryDy=0;exitX=0;exitY=0.5;exitDx=0;exitDy=0;" edge="1" parent="1" source="stTekoHwhPH9pPkIOouY-59" target="stTekoHwhPH9pPkIOouY-67">
          <mxGeometry x="22" y="165.5" width="100" height="100" as="geometry">
            <mxPoint x="470" y="610" as="sourcePoint" />
            <mxPoint x="400" y="770" as="targetPoint" />
            <Array as="points">
              <mxPoint x="440" y="830" />
            </Array>
          </mxGeometry>
        </mxCell>
        <mxCell id="eqcaT4zVRdiyQCACfoTZ-36" value="" style="edgeStyle=elbowEdgeStyle;elbow=vertical;strokeWidth=4;endArrow=block;endFill=1;fontStyle=1;strokeColor=#23445D;entryX=1;entryY=0.5;entryDx=0;entryDy=0;exitX=0;exitY=0.5;exitDx=0;exitDy=0;" edge="1" parent="1" source="stTekoHwhPH9pPkIOouY-59" target="stTekoHwhPH9pPkIOouY-68">
          <mxGeometry x="22" y="165.5" width="100" height="100" as="geometry">
            <mxPoint x="492" y="630" as="sourcePoint" />
            <mxPoint x="410" y="780" as="targetPoint" />
            <Array as="points">
              <mxPoint x="430" y="900" />
            </Array>
          </mxGeometry>
        </mxCell>
        <mxCell id="eqcaT4zVRdiyQCACfoTZ-37" value="" style="edgeStyle=elbowEdgeStyle;elbow=vertical;strokeWidth=4;endArrow=block;endFill=1;fontStyle=1;strokeColor=#23445D;exitX=0;exitY=0.5;exitDx=0;exitDy=0;entryX=1;entryY=0.5;entryDx=0;entryDy=0;" edge="1" parent="1" source="stTekoHwhPH9pPkIOouY-59" target="stTekoHwhPH9pPkIOouY-69">
          <mxGeometry x="22" y="165.5" width="100" height="100" as="geometry">
            <mxPoint x="502" y="640" as="sourcePoint" />
            <mxPoint x="410" y="930" as="targetPoint" />
            <Array as="points">
              <mxPoint x="440" y="970" />
            </Array>
          </mxGeometry>
        </mxCell>
        <mxCell id="eqcaT4zVRdiyQCACfoTZ-38" value="" style="edgeStyle=elbowEdgeStyle;elbow=vertical;strokeWidth=4;endArrow=block;endFill=1;fontStyle=1;strokeColor=#23445D;entryX=1;entryY=0.5;entryDx=0;entryDy=0;exitX=0;exitY=0.5;exitDx=0;exitDy=0;" edge="1" parent="1" source="stTekoHwhPH9pPkIOouY-59" target="stTekoHwhPH9pPkIOouY-70">
          <mxGeometry x="22" y="165.5" width="100" height="100" as="geometry">
            <mxPoint x="512" y="650" as="sourcePoint" />
            <mxPoint x="430" y="800" as="targetPoint" />
            <Array as="points">
              <mxPoint x="430" y="1040" />
            </Array>
          </mxGeometry>
        </mxCell>
        <mxCell id="eqcaT4zVRdiyQCACfoTZ-39" value="" style="edgeStyle=elbowEdgeStyle;elbow=vertical;strokeWidth=4;endArrow=block;endFill=1;fontStyle=1;strokeColor=#23445D;entryX=1;entryY=0.5;entryDx=0;entryDy=0;exitX=1;exitY=0.5;exitDx=0;exitDy=0;" edge="1" parent="1" source="stTekoHwhPH9pPkIOouY-59" target="stTekoHwhPH9pPkIOouY-72">
          <mxGeometry x="22" y="165.5" width="100" height="100" as="geometry">
            <mxPoint x="702" y="580.25" as="sourcePoint" />
            <mxPoint x="620" y="660.25" as="targetPoint" />
            <Array as="points">
              <mxPoint x="740" y="650" />
              <mxPoint x="710" y="620.25" />
            </Array>
          </mxGeometry>
        </mxCell>
        <mxCell id="eqcaT4zVRdiyQCACfoTZ-40" value="" style="edgeStyle=elbowEdgeStyle;elbow=vertical;strokeWidth=4;endArrow=block;endFill=1;fontStyle=1;strokeColor=#23445D;entryX=1;entryY=0.5;entryDx=0;entryDy=0;exitX=1;exitY=0.5;exitDx=0;exitDy=0;" edge="1" parent="1" source="stTekoHwhPH9pPkIOouY-59" target="stTekoHwhPH9pPkIOouY-73">
          <mxGeometry x="22" y="165.5" width="100" height="100" as="geometry">
            <mxPoint x="682" y="620" as="sourcePoint" />
            <mxPoint x="720" y="700" as="targetPoint" />
            <Array as="points">
              <mxPoint x="740" y="690" />
              <mxPoint x="720" y="630.25" />
            </Array>
          </mxGeometry>
        </mxCell>
        <mxCell id="eqcaT4zVRdiyQCACfoTZ-41" value="" style="edgeStyle=elbowEdgeStyle;elbow=vertical;strokeWidth=4;endArrow=block;endFill=1;fontStyle=1;strokeColor=#23445D;entryX=1.002;entryY=0.604;entryDx=0;entryDy=0;entryPerimeter=0;exitX=1;exitY=0.5;exitDx=0;exitDy=0;" edge="1" parent="1" source="stTekoHwhPH9pPkIOouY-59" target="stTekoHwhPH9pPkIOouY-74">
          <mxGeometry x="22" y="165.5" width="100" height="100" as="geometry">
            <mxPoint x="710" y="600" as="sourcePoint" />
            <mxPoint x="750.4000000000001" y="814.72" as="targetPoint" />
            <Array as="points">
              <mxPoint x="740" y="720" />
              <mxPoint x="770" y="630.25" />
            </Array>
          </mxGeometry>
        </mxCell>
        <mxCell id="eqcaT4zVRdiyQCACfoTZ-43" value="" style="edgeStyle=elbowEdgeStyle;elbow=vertical;strokeWidth=4;endArrow=block;endFill=1;fontStyle=1;strokeColor=#23445D;entryX=1;entryY=0.5;entryDx=0;entryDy=0;exitX=1;exitY=0.5;exitDx=0;exitDy=0;" edge="1" parent="1" source="stTekoHwhPH9pPkIOouY-59" target="stTekoHwhPH9pPkIOouY-75">
          <mxGeometry x="22" y="165.5" width="100" height="100" as="geometry">
            <mxPoint x="682" y="620" as="sourcePoint" />
            <mxPoint x="720" y="846" as="targetPoint" />
            <Array as="points">
              <mxPoint x="740" y="760" />
              <mxPoint x="780" y="640.25" />
            </Array>
          </mxGeometry>
        </mxCell>
        <mxCell id="eqcaT4zVRdiyQCACfoTZ-44" value="" style="edgeStyle=elbowEdgeStyle;elbow=vertical;strokeWidth=4;endArrow=block;endFill=1;fontStyle=1;strokeColor=#23445D;entryX=1;entryY=0.5;entryDx=0;entryDy=0;exitX=1;exitY=0.5;exitDx=0;exitDy=0;" edge="1" parent="1" source="stTekoHwhPH9pPkIOouY-59" target="stTekoHwhPH9pPkIOouY-76">
          <mxGeometry x="22" y="165.5" width="100" height="100" as="geometry">
            <mxPoint x="692" y="630" as="sourcePoint" />
            <mxPoint x="730" y="856" as="targetPoint" />
            <Array as="points">
              <mxPoint x="740" y="790" />
              <mxPoint x="790" y="650.25" />
            </Array>
          </mxGeometry>
        </mxCell>
        <mxCell id="eqcaT4zVRdiyQCACfoTZ-45" value="" style="edgeStyle=elbowEdgeStyle;elbow=vertical;strokeWidth=4;endArrow=block;endFill=1;fontStyle=1;strokeColor=#23445D;exitX=1;exitY=0.5;exitDx=0;exitDy=0;entryX=1;entryY=0.5;entryDx=0;entryDy=0;" edge="1" parent="1" source="stTekoHwhPH9pPkIOouY-59" target="stTekoHwhPH9pPkIOouY-77">
          <mxGeometry x="22" y="165.5" width="100" height="100" as="geometry">
            <mxPoint x="702" y="640" as="sourcePoint" />
            <mxPoint x="800" y="980" as="targetPoint" />
            <Array as="points">
              <mxPoint x="740" y="820" />
              <mxPoint x="800" y="660.25" />
            </Array>
          </mxGeometry>
        </mxCell>
        <mxCell id="eqcaT4zVRdiyQCACfoTZ-46" value="Phát triển thêm ở version sau" style="rounded=1;fillColor=#10739E;strokeColor=none;shadow=1;gradientColor=none;fontStyle=1;fontColor=#FFFFFF;fontSize=14;" vertex="1" parent="1">
          <mxGeometry x="805" y="690" width="210" height="60" as="geometry" />
        </mxCell>
        <mxCell id="eqcaT4zVRdiyQCACfoTZ-47" value="" style="edgeStyle=elbowEdgeStyle;elbow=vertical;strokeWidth=4;endArrow=block;endFill=1;fontStyle=1;strokeColor=#23445D;exitX=0.5;exitY=1;exitDx=0;exitDy=0;entryX=0.5;entryY=0;entryDx=0;entryDy=0;" edge="1" parent="1" source="stTekoHwhPH9pPkIOouY-61" target="eqcaT4zVRdiyQCACfoTZ-46">
          <mxGeometry x="22" y="165.5" width="100" height="100" as="geometry">
            <mxPoint x="682" y="620" as="sourcePoint" />
            <mxPoint x="910" y="680" as="targetPoint" />
            <Array as="points">
              <mxPoint x="900" y="660" />
              <mxPoint x="810" y="670.25" />
            </Array>
          </mxGeometry>
        </mxCell>
        <mxCell id="eqcaT4zVRdiyQCACfoTZ-49" value="Quản lý loại dịch vụ" style="rounded=1;fillColor=#10739E;strokeColor=none;shadow=1;gradientColor=none;fontStyle=1;fontColor=#FFFFFF;fontSize=14;" vertex="1" parent="1">
          <mxGeometry x="1030" y="660" width="210" height="60" as="geometry" />
        </mxCell>
        <mxCell id="eqcaT4zVRdiyQCACfoTZ-50" value="Quản lý dịch vụ" style="rounded=1;fillColor=#10739E;strokeColor=none;shadow=1;gradientColor=none;fontStyle=1;fontColor=#FFFFFF;fontSize=14;" vertex="1" parent="1">
          <mxGeometry x="1040" y="730" width="200" height="60" as="geometry" />
        </mxCell>
        <mxCell id="eqcaT4zVRdiyQCACfoTZ-51" value="Quản lý loại sản phẩm" style="rounded=1;fillColor=#10739E;strokeColor=none;shadow=1;gradientColor=none;fontStyle=1;fontColor=#FFFFFF;fontSize=14;" vertex="1" parent="1">
          <mxGeometry x="1040" y="800" width="200" height="60" as="geometry" />
        </mxCell>
        <mxCell id="eqcaT4zVRdiyQCACfoTZ-52" value="Quản lý sản phẩm" style="rounded=1;fillColor=#10739E;strokeColor=none;shadow=1;gradientColor=none;fontStyle=1;fontColor=#FFFFFF;fontSize=14;" vertex="1" parent="1">
          <mxGeometry x="1040" y="870" width="200" height="60" as="geometry" />
        </mxCell>
        <mxCell id="eqcaT4zVRdiyQCACfoTZ-53" value="Quản lý loại nhân viên" style="rounded=1;fillColor=#10739E;strokeColor=none;shadow=1;gradientColor=none;fontStyle=1;fontColor=#FFFFFF;fontSize=14;" vertex="1" parent="1">
          <mxGeometry x="1040" y="940" width="200" height="60" as="geometry" />
        </mxCell>
        <mxCell id="eqcaT4zVRdiyQCACfoTZ-54" value="Quản lý nhân viên" style="rounded=1;fillColor=#10739E;strokeColor=none;shadow=1;gradientColor=none;fontStyle=1;fontColor=#FFFFFF;fontSize=14;" vertex="1" parent="1">
          <mxGeometry x="1040" y="1010" width="200" height="60" as="geometry" />
        </mxCell>
        <mxCell id="eqcaT4zVRdiyQCACfoTZ-55" value="" style="edgeStyle=elbowEdgeStyle;elbow=vertical;strokeWidth=4;endArrow=block;endFill=1;fontStyle=1;strokeColor=#23445D;entryX=1;entryY=0.5;entryDx=0;entryDy=0;exitX=0.75;exitY=1;exitDx=0;exitDy=0;" edge="1" parent="1" target="eqcaT4zVRdiyQCACfoTZ-49" source="stTekoHwhPH9pPkIOouY-60">
          <mxGeometry x="22" y="165.5" width="100" height="100" as="geometry">
            <mxPoint x="1202" y="610" as="sourcePoint" />
            <mxPoint x="1150" y="660.25" as="targetPoint" />
            <Array as="points">
              <mxPoint x="1270" y="690" />
              <mxPoint x="1240" y="620.25" />
            </Array>
          </mxGeometry>
        </mxCell>
        <mxCell id="eqcaT4zVRdiyQCACfoTZ-56" value="" style="edgeStyle=elbowEdgeStyle;elbow=vertical;strokeWidth=4;endArrow=block;endFill=1;fontStyle=1;strokeColor=#23445D;entryX=1;entryY=0.5;entryDx=0;entryDy=0;exitX=0.75;exitY=1;exitDx=0;exitDy=0;" edge="1" parent="1" target="eqcaT4zVRdiyQCACfoTZ-50" source="stTekoHwhPH9pPkIOouY-60">
          <mxGeometry x="22" y="165.5" width="100" height="100" as="geometry">
            <mxPoint x="1202" y="610" as="sourcePoint" />
            <mxPoint x="1250" y="700" as="targetPoint" />
            <Array as="points">
              <mxPoint x="1270" y="760" />
              <mxPoint x="1250" y="630.25" />
            </Array>
          </mxGeometry>
        </mxCell>
        <mxCell id="eqcaT4zVRdiyQCACfoTZ-57" value="" style="edgeStyle=elbowEdgeStyle;elbow=vertical;strokeWidth=4;endArrow=block;endFill=1;fontStyle=1;strokeColor=#23445D;entryX=1.002;entryY=0.604;entryDx=0;entryDy=0;entryPerimeter=0;exitX=0.75;exitY=1;exitDx=0;exitDy=0;" edge="1" parent="1" target="eqcaT4zVRdiyQCACfoTZ-51" source="stTekoHwhPH9pPkIOouY-60">
          <mxGeometry x="22" y="165.5" width="100" height="100" as="geometry">
            <mxPoint x="1202" y="610" as="sourcePoint" />
            <mxPoint x="1280.4" y="814.72" as="targetPoint" />
            <Array as="points">
              <mxPoint x="1270" y="836" />
              <mxPoint x="1300" y="630.25" />
            </Array>
          </mxGeometry>
        </mxCell>
        <mxCell id="eqcaT4zVRdiyQCACfoTZ-58" value="" style="edgeStyle=elbowEdgeStyle;elbow=vertical;strokeWidth=4;endArrow=block;endFill=1;fontStyle=1;strokeColor=#23445D;entryX=1;entryY=0.5;entryDx=0;entryDy=0;exitX=0.75;exitY=1;exitDx=0;exitDy=0;" edge="1" parent="1" target="eqcaT4zVRdiyQCACfoTZ-52" source="stTekoHwhPH9pPkIOouY-60">
          <mxGeometry x="22" y="165.5" width="100" height="100" as="geometry">
            <mxPoint x="1202" y="610" as="sourcePoint" />
            <mxPoint x="1250" y="846" as="targetPoint" />
            <Array as="points">
              <mxPoint x="1270" y="900" />
              <mxPoint x="1310" y="640.25" />
            </Array>
          </mxGeometry>
        </mxCell>
        <mxCell id="eqcaT4zVRdiyQCACfoTZ-59" value="" style="edgeStyle=elbowEdgeStyle;elbow=vertical;strokeWidth=4;endArrow=block;endFill=1;fontStyle=1;strokeColor=#23445D;entryX=1;entryY=0.5;entryDx=0;entryDy=0;exitX=0.75;exitY=1;exitDx=0;exitDy=0;" edge="1" parent="1" target="eqcaT4zVRdiyQCACfoTZ-53" source="stTekoHwhPH9pPkIOouY-60">
          <mxGeometry x="22" y="165.5" width="100" height="100" as="geometry">
            <mxPoint x="1202" y="610" as="sourcePoint" />
            <mxPoint x="1260" y="856" as="targetPoint" />
            <Array as="points">
              <mxPoint x="1270" y="970" />
              <mxPoint x="1320" y="650.25" />
            </Array>
          </mxGeometry>
        </mxCell>
        <mxCell id="eqcaT4zVRdiyQCACfoTZ-60" value="" style="edgeStyle=elbowEdgeStyle;elbow=vertical;strokeWidth=4;endArrow=block;endFill=1;fontStyle=1;strokeColor=#23445D;exitX=0.75;exitY=1;exitDx=0;exitDy=0;entryX=1;entryY=0.5;entryDx=0;entryDy=0;" edge="1" parent="1" target="eqcaT4zVRdiyQCACfoTZ-54" source="stTekoHwhPH9pPkIOouY-60">
          <mxGeometry x="22" y="165.5" width="100" height="100" as="geometry">
            <mxPoint x="1202" y="610" as="sourcePoint" />
            <mxPoint x="1330" y="980" as="targetPoint" />
            <Array as="points">
              <mxPoint x="1280" y="1040" />
              <mxPoint x="1330" y="660.25" />
            </Array>
          </mxGeometry>
        </mxCell>
        <mxCell id="eqcaT4zVRdiyQCACfoTZ-61" value="Quản lý khuyến mãi" style="rounded=1;fillColor=#10739E;strokeColor=none;shadow=1;gradientColor=none;fontStyle=1;fontColor=#FFFFFF;fontSize=14;" vertex="1" parent="1">
          <mxGeometry x="1330" y="670" width="210" height="60" as="geometry" />
        </mxCell>
        <mxCell id="eqcaT4zVRdiyQCACfoTZ-62" value="Quản lý tài khoản" style="rounded=1;fillColor=#10739E;strokeColor=none;shadow=1;gradientColor=none;fontStyle=1;fontColor=#FFFFFF;fontSize=14;" vertex="1" parent="1">
          <mxGeometry x="1340" y="740" width="200" height="60" as="geometry" />
        </mxCell>
        <mxCell id="eqcaT4zVRdiyQCACfoTZ-63" value="Quản lý hóa đơn " style="rounded=1;fillColor=#10739E;strokeColor=none;shadow=1;gradientColor=none;fontStyle=1;fontColor=#FFFFFF;fontSize=14;" vertex="1" parent="1">
          <mxGeometry x="1340" y="810" width="200" height="60" as="geometry" />
        </mxCell>
        <mxCell id="eqcaT4zVRdiyQCACfoTZ-64" value="Quản lý lịch hẹn" style="rounded=1;fillColor=#10739E;strokeColor=none;shadow=1;gradientColor=none;fontStyle=1;fontColor=#FFFFFF;fontSize=14;" vertex="1" parent="1">
          <mxGeometry x="1340" y="880" width="200" height="60" as="geometry" />
        </mxCell>
        <mxCell id="eqcaT4zVRdiyQCACfoTZ-65" value="Quản lý trạng thái lịch hẹn" style="rounded=1;fillColor=#10739E;strokeColor=none;shadow=1;gradientColor=none;fontStyle=1;fontColor=#FFFFFF;fontSize=14;" vertex="1" parent="1">
          <mxGeometry x="1340" y="950" width="200" height="60" as="geometry" />
        </mxCell>
        <mxCell id="eqcaT4zVRdiyQCACfoTZ-67" value="" style="edgeStyle=elbowEdgeStyle;elbow=vertical;strokeWidth=4;endArrow=block;endFill=1;fontStyle=1;strokeColor=#23445D;entryX=1;entryY=0.5;entryDx=0;entryDy=0;exitX=1;exitY=0.5;exitDx=0;exitDy=0;" edge="1" parent="1" target="eqcaT4zVRdiyQCACfoTZ-61" source="stTekoHwhPH9pPkIOouY-60">
          <mxGeometry x="22" y="165.5" width="100" height="100" as="geometry">
            <mxPoint x="1502" y="620" as="sourcePoint" />
            <mxPoint x="1450" y="670.25" as="targetPoint" />
            <Array as="points">
              <mxPoint x="1570" y="660" />
              <mxPoint x="1540" y="630.25" />
            </Array>
          </mxGeometry>
        </mxCell>
        <mxCell id="eqcaT4zVRdiyQCACfoTZ-68" value="" style="edgeStyle=elbowEdgeStyle;elbow=vertical;strokeWidth=4;endArrow=block;endFill=1;fontStyle=1;strokeColor=#23445D;entryX=1;entryY=0.5;entryDx=0;entryDy=0;exitX=1;exitY=0.5;exitDx=0;exitDy=0;" edge="1" parent="1" target="eqcaT4zVRdiyQCACfoTZ-62" source="stTekoHwhPH9pPkIOouY-60">
          <mxGeometry x="22" y="165.5" width="100" height="100" as="geometry">
            <mxPoint x="1502" y="620" as="sourcePoint" />
            <mxPoint x="1550" y="710" as="targetPoint" />
            <Array as="points">
              <mxPoint x="1570" y="700" />
              <mxPoint x="1550" y="640.25" />
            </Array>
          </mxGeometry>
        </mxCell>
        <mxCell id="eqcaT4zVRdiyQCACfoTZ-69" value="" style="edgeStyle=elbowEdgeStyle;elbow=vertical;strokeWidth=4;endArrow=block;endFill=1;fontStyle=1;strokeColor=#23445D;entryX=1.002;entryY=0.604;entryDx=0;entryDy=0;entryPerimeter=0;exitX=1;exitY=0.5;exitDx=0;exitDy=0;" edge="1" parent="1" target="eqcaT4zVRdiyQCACfoTZ-63" source="stTekoHwhPH9pPkIOouY-60">
          <mxGeometry x="22" y="165.5" width="100" height="100" as="geometry">
            <mxPoint x="1502" y="620" as="sourcePoint" />
            <mxPoint x="1580.4" y="824.72" as="targetPoint" />
            <Array as="points">
              <mxPoint x="1570" y="730" />
              <mxPoint x="1600" y="640.25" />
            </Array>
          </mxGeometry>
        </mxCell>
        <mxCell id="eqcaT4zVRdiyQCACfoTZ-70" value="" style="edgeStyle=elbowEdgeStyle;elbow=vertical;strokeWidth=4;endArrow=block;endFill=1;fontStyle=1;strokeColor=#23445D;entryX=1;entryY=0.5;entryDx=0;entryDy=0;exitX=1;exitY=0.5;exitDx=0;exitDy=0;" edge="1" parent="1" target="eqcaT4zVRdiyQCACfoTZ-64" source="stTekoHwhPH9pPkIOouY-60">
          <mxGeometry x="22" y="165.5" width="100" height="100" as="geometry">
            <mxPoint x="1502" y="620" as="sourcePoint" />
            <mxPoint x="1550" y="856" as="targetPoint" />
            <Array as="points">
              <mxPoint x="1570" y="770" />
              <mxPoint x="1610" y="650.25" />
            </Array>
          </mxGeometry>
        </mxCell>
        <mxCell id="eqcaT4zVRdiyQCACfoTZ-71" value="" style="edgeStyle=elbowEdgeStyle;elbow=vertical;strokeWidth=4;endArrow=block;endFill=1;fontStyle=1;strokeColor=#23445D;entryX=1;entryY=0.5;entryDx=0;entryDy=0;exitX=1;exitY=0.5;exitDx=0;exitDy=0;" edge="1" parent="1" target="eqcaT4zVRdiyQCACfoTZ-65" source="stTekoHwhPH9pPkIOouY-60">
          <mxGeometry x="22" y="165.5" width="100" height="100" as="geometry">
            <mxPoint x="1502" y="620" as="sourcePoint" />
            <mxPoint x="1560" y="866" as="targetPoint" />
            <Array as="points">
              <mxPoint x="1570" y="800" />
              <mxPoint x="1620" y="660.25" />
            </Array>
          </mxGeometry>
        </mxCell>
      </root>
    </mxGraphModel>
  </diagram>
</mxfile>
